<?xml version="1.0" standalone="no"?>
<!DOCTYPE svg PUBLIC "-//W3C//DTD SVG 20010904//EN"
 "http://www.w3.org/TR/2001/REC-SVG-20010904/DTD/svg10.dtd">
<svg version="1.0" xmlns="http://www.w3.org/2000/svg"
 width="379.000000pt" height="379.000000pt" viewBox="0 0 379.000000 379.000000"
 preserveAspectRatio="xMidYMid meet">
<metadata>
Created by potrace 1.11, written by Peter Selinger 2001-2013
</metadata>
<g transform="translate(0.000000,379.000000) scale(0.100000,-0.100000)"
fill="#000000" stroke="none">
<path d="M1341 3776 c54 -39 82 -71 104 -114 14 -28 25 -54 25 -60 0 -5 6 -22
14 -38 15 -27 14 -28 -29 -58 -69 -49 -123 -134 -132 -206 -3 -19 -6 -44 -7
-54 -2 -11 1 -37 5 -59 6 -37 3 -46 -49 -126 -116 -180 -255 -521 -288 -705
-3 -17 -9 -49 -14 -71 -5 -22 -12 -62 -16 -90 -3 -27 -8 -59 -10 -70 -12 -58
-18 -237 -18 -555 -1 -344 6 -495 23 -572 9 -37 8 -38 -18 -38 -38 0 -46 -9
-70 -75 -12 -33 -24 -67 -28 -75 -9 -23 -14 -42 -20 -77 -3 -18 -8 -33 -12
-33 -4 0 -8 -17 -9 -37 -2 -21 -8 -41 -15 -45 -9 -6 -9 -8 1 -8 8 0 10 -5 5
-12 -29 -47 -12 -246 25 -290 8 -10 12 -18 8 -18 -15 0 51 -62 92 -86 46 -27
83 -40 142 -51 41 -7 47 -7 80 2 14 4 37 7 52 8 15 0 25 4 22 8 -2 5 4 12 14
18 10 5 32 23 49 38 16 15 43 35 59 43 42 21 108 63 115 73 3 5 9 8 13 8 3 -1
7 -1 9 0 17 5 37 6 37 1 0 -3 -8 -15 -17 -26 l-18 -21 24 20 c21 17 23 18 18
3 -3 -10 -1 -20 5 -24 6 -4 8 -3 4 4 -3 6 3 13 14 17 11 4 18 10 15 15 -3 4 3
7 12 6 9 -2 19 -8 21 -14 2 -7 8 -12 13 -12 4 0 6 8 3 17 -4 12 1 10 16 -7 14
-16 20 -19 16 -8 -4 15 1 16 42 12 26 -3 84 -6 129 -7 45 -1 84 -5 88 -9 4 -3
-1 -5 -12 -4 -10 2 -26 -1 -37 -6 -14 -8 -17 -7 -11 3 5 8 4 10 -4 5 -6 -4 -9
-12 -6 -17 4 -5 1 -9 -5 -9 -7 0 -10 7 -6 15 3 8 1 15 -4 15 -13 0 -13 -27 0
-35 6 -4 17 -2 24 4 7 6 16 8 19 4 4 -3 7 -2 7 4 0 5 7 10 15 10 8 0 15 -4 15
-8 0 -4 -7 -9 -15 -13 -17 -6 -20 -26 -4 -26 5 0 7 4 4 10 -3 5 -2 10 4 10 5
0 11 -3 14 -7 2 -5 3 -3 1 3 -1 5 5 21 13 35 8 13 12 16 9 7 -4 -12 0 -16 12
-12 15 5 15 4 -1 -9 -17 -14 -16 -15 3 -20 11 -3 22 -1 25 3 7 12 40 4 38 -9
-2 -6 2 -11 8 -11 6 0 9 -7 6 -15 -4 -8 -1 -17 5 -21 7 -5 8 -2 4 7 -4 8 0 5
9 -6 46 -57 64 -72 125 -102 68 -33 151 -43 222 -27 13 3 28 6 33 7 15 3 76
47 99 69 10 11 24 17 32 14 7 -3 17 1 21 8 13 22 93 67 105 60 7 -4 8 -3 4 5
-4 6 0 14 11 18 10 4 27 15 37 25 15 14 22 15 28 6 6 -10 8 -9 8 3 0 9 9 24
20 34 11 10 20 15 20 12 0 -4 17 12 38 35 20 24 45 49 55 56 9 7 17 20 17 28
0 8 5 14 10 14 6 0 10 6 10 14 0 7 12 21 26 31 21 14 28 14 42 3 15 -12 16
-11 2 6 -13 16 -12 20 3 31 9 6 35 11 56 10 22 -1 38 1 36 5 -3 4 -18 6 -35 5
-16 -1 -30 -1 -30 1 0 4 10 16 52 66 10 11 23 36 30 54 7 19 15 34 19 34 4 0
6 8 4 17 -1 10 1 27 5 39 5 11 11 47 14 80 3 32 9 77 12 99 13 99 16 153 18
340 1 110 -1 214 -4 231 -4 17 -3 39 3 49 5 10 6 15 1 12 -5 -3 -9 30 -10 74
0 54 3 76 10 72 7 -5 7 -2 0 8 -16 19 -23 299 -9 349 13 50 5 104 -26 177 -10
23 -21 61 -24 85 -3 24 -8 50 -10 58 -2 8 -7 31 -10 50 -25 147 -98 365 -170
505 -37 71 -43 91 -47 166 -6 94 -30 162 -73 205 l-26 26 36 93 c37 95 59 128
108 160 48 31 33 36 -68 21 -47 -8 -166 -46 -191 -62 -12 -9 -32 -41 -45 -72
-12 -31 -25 -60 -28 -64 -9 -9 -121 -19 -121 -10 0 4 10 9 22 9 13 1 24 7 26
13 3 7 18 20 36 31 l31 19 -35 -6 c-19 -4 -56 -17 -81 -30 -26 -13 -49 -21
-52 -18 -8 8 3 35 22 58 13 15 6 14 -36 -8 -81 -40 -108 -18 -51 43 30 32 30
33 7 26 -13 -4 -46 -21 -72 -37 -36 -23 -51 -28 -60 -19 -6 6 -7 11 -1 11 6 0
19 6 30 14 17 13 14 14 -25 5 -24 -5 -49 -13 -55 -16 -11 -7 -77 -5 -85 2 -2
3 4 14 15 26 l19 21 -30 -13 c-17 -7 -35 -17 -42 -21 -6 -5 -30 -11 -52 -14
-51 -6 -52 5 -6 62 19 23 35 45 35 49 0 15 -121 -60 -160 -99 l-43 -43 -48 12
c-26 7 -50 11 -52 9 -2 -3 -19 31 -37 75 -17 44 -37 85 -44 90 -24 20 -197 72
-253 75 -44 3 -53 1 -42 -8z m189 -3437 c0 -6 -4 -7 -10 -4 -5 3 -10 11 -10
16 0 6 5 7 10 4 6 -3 10 -11 10 -16z m430 -19 c3 -1 8 -2 12 -1 4 0 5 -6 1
-15 -3 -8 -8 -12 -11 -10 -3 3 -12 0 -20 -7 -13 -10 -15 -9 -10 4 4 9 2 21 -4
27 -7 7 -5 10 8 7 11 -2 21 -4 24 -5z"/>
<path d="M735 741 c-3 -5 -2 -12 3 -15 5 -3 9 1 9 9 0 17 -3 19 -12 6z"/>
<path d="M756 677 c3 -10 9 -15 12 -12 3 3 0 11 -7 18 -10 9 -11 8 -5 -6z"/>
<path d="M3235 671 c-3 -5 -2 -12 3 -15 5 -3 9 1 9 9 0 17 -3 19 -12 6z"/>
<path d="M667 630 c5 -8 9 -25 8 -37 -1 -12 2 -20 7 -17 11 7 4 42 -12 57 -12
10 -12 9 -3 -3z"/>
<path d="M3115 631 c-3 -5 -2 -12 3 -15 5 -3 9 1 9 9 0 17 -3 19 -12 6z"/>
<path d="M710 608 c0 -4 4 -8 9 -8 6 0 12 4 15 8 3 5 -1 9 -9 9 -8 0 -15 -4
-15 -9z"/>
<path d="M635 599 c-4 -6 -5 -12 -2 -15 2 -3 7 2 10 11 7 17 1 20 -8 4z"/>
<path d="M595 590 c3 -5 8 -10 11 -10 2 0 4 5 4 10 0 6 -5 10 -11 10 -5 0 -7
-4 -4 -10z"/>
<path d="M3079 563 c-13 -16 -12 -17 4 -4 16 13 21 21 13 21 -2 0 -10 -8 -17
-17z"/>
<path d="M3153 565 c0 -8 4 -12 9 -9 5 3 6 10 3 15 -9 13 -12 11 -12 -6z"/>
<path d="M613 545 c0 -8 4 -12 9 -9 4 3 8 9 8 15 0 5 -4 9 -8 9 -5 0 -9 -7 -9
-15z"/>
<path d="M674 545 c3 -23 12 -26 13 -5 1 11 -2 20 -7 20 -4 0 -7 -7 -6 -15z"/>
<path d="M3013 545 c0 -8 4 -12 9 -9 4 3 8 9 8 15 0 5 -4 9 -8 9 -5 0 -9 -7
-9 -15z"/>
<path d="M3116 537 c3 -10 9 -15 12 -12 3 3 0 11 -7 18 -10 9 -11 8 -5 -6z"/>
<path d="M2936 509 c4 -8 30 -6 38 2 3 3 -5 5 -19 5 -13 0 -22 -3 -19 -7z"/>
<path d="M3039 518 c-7 -23 -4 -35 7 -35 9 0 11 4 4 12 -5 7 -7 15 -3 18 3 4
3 7 0 7 -4 0 -7 -1 -8 -2z"/>
<path d="M530 489 c0 -5 5 -7 10 -4 6 3 10 8 10 11 0 2 -4 4 -10 4 -5 0 -10
-5 -10 -11z"/>
<path d="M590 496 c0 -2 7 -7 16 -10 8 -3 12 -2 9 4 -6 10 -25 14 -25 6z"/>
<path d="M710 496 c0 -2 7 -7 16 -10 8 -3 12 -2 9 4 -6 10 -25 14 -25 6z"/>
<path d="M2990 492 c0 -5 7 -9 15 -9 8 0 12 4 9 9 -3 4 -9 8 -15 8 -5 0 -9 -4
-9 -8z"/>
<path d="M3150 492 c0 -5 7 -9 15 -9 8 0 12 4 9 9 -3 4 -9 8 -15 8 -5 0 -9 -4
-9 -8z"/>
<path d="M3313 475 c0 -8 4 -12 9 -9 5 3 6 10 3 15 -9 13 -12 11 -12 -6z"/>
<path d="M2953 455 c0 -8 4 -12 9 -9 5 3 6 10 3 15 -9 13 -12 11 -12 -6z"/>
<path d="M2999 443 c-13 -16 -12 -17 4 -4 16 13 21 21 13 21 -2 0 -10 -8 -17
-17z"/>
<path d="M3039 458 c-5 -18 -6 -38 -1 -34 7 8 12 36 6 36 -2 0 -4 -1 -5 -2z"/>
<path d="M3206 448 c3 -5 10 -6 15 -3 13 9 11 12 -6 12 -8 0 -12 -4 -9 -9z"/>
<path d="M690 446 c0 -2 8 -10 18 -17 15 -13 16 -12 3 4 -13 16 -21 21 -21 13z"/>
<path d="M635 431 c-3 -5 -2 -12 3 -15 5 -3 9 1 9 9 0 17 -3 19 -12 6z"/>
<path d="M730 432 c0 -5 7 -9 15 -9 8 0 12 4 9 9 -3 4 -9 8 -15 8 -5 0 -9 -4
-9 -8z"/>
<path d="M3100 430 c-9 -6 -10 -10 -3 -10 6 0 15 5 18 10 8 12 4 12 -15 0z"/>
<path d="M566 412 c-3 -5 1 -9 9 -9 8 0 12 4 9 9 -3 4 -7 8 -9 8 -2 0 -6 -4
-9 -8z"/>
<path d="M2855 410 c-3 -5 -1 -10 4 -10 6 0 11 5 11 10 0 6 -2 10 -4 10 -3 0
-8 -4 -11 -10z"/>
<path d="M2986 412 c-2 -4 4 -8 14 -8 10 0 16 4 14 8 -3 4 -9 8 -14 8 -5 0
-11 -4 -14 -8z"/>
<path d="M3175 410 c3 -5 8 -10 11 -10 2 0 4 5 4 10 0 6 -5 10 -11 10 -5 0 -7
-4 -4 -10z"/>
<path d="M2889 393 c-13 -16 -12 -17 4 -4 16 13 21 21 13 21 -2 0 -10 -8 -17
-17z"/>
<path d="M693 375 c0 -8 4 -12 9 -9 5 3 6 10 3 15 -9 13 -12 11 -12 -6z"/>
<path d="M3135 379 c-4 -6 -5 -12 -2 -15 2 -3 7 2 10 11 7 17 1 20 -8 4z"/>
<path d="M750 370 c0 -5 5 -10 11 -10 5 0 7 5 4 10 -3 6 -8 10 -11 10 -2 0 -4
-4 -4 -10z"/>
<path d="M2959 363 c-13 -16 -12 -17 4 -4 16 13 21 21 13 21 -2 0 -10 -8 -17
-17z"/>
<path d="M3090 370 c0 -5 5 -10 11 -10 5 0 7 5 4 10 -3 6 -8 10 -11 10 -2 0
-4 -4 -4 -10z"/>
<path d="M2896 352 c-3 -5 1 -9 9 -9 8 0 12 4 9 9 -3 4 -7 8 -9 8 -2 0 -6 -4
-9 -8z"/>
<path d="M1456 335 c-11 -8 -15 -15 -9 -15 6 0 16 7 23 15 16 19 11 19 -14 0z"/>
<path d="M2789 333 c-13 -16 -12 -17 4 -4 16 13 21 21 13 21 -2 0 -10 -8 -17
-17z"/>
<path d="M1547 322 c-10 -10 -17 -22 -17 -27 0 -5 6 -1 13 10 10 12 16 14 21
7 4 -7 13 -12 19 -12 7 0 4 5 -6 11 -9 6 -15 14 -12 20 10 15 -1 10 -18 -9z"/>
<path d="M755 319 c-4 -6 -5 -12 -2 -15 2 -3 7 2 10 11 7 17 1 20 -8 4z"/>
<path d="M1644 316 c1 -8 5 -18 8 -22 4 -3 5 1 4 10 -1 8 -5 18 -8 22 -4 3 -5
-1 -4 -10z"/>
<path d="M1673 309 c-1 -10 2 -21 8 -24 5 -3 6 0 4 7 -4 9 2 14 15 14 21 0 27
-11 10 -19 -6 -3 -5 -4 2 -3 15 3 18 26 3 27 -5 1 -17 5 -25 9 -12 6 -16 3
-17 -11z"/>
<path d="M3033 315 c0 -8 4 -12 9 -9 5 3 6 10 3 15 -9 13 -12 11 -12 -6z"/>
<path d="M1747 303 c3 -7 9 -13 13 -13 4 0 10 6 13 13 3 7 -3 13 -13 13 -10 0
-16 -6 -13 -13z"/>
<path d="M2810 311 c0 -6 4 -12 8 -15 5 -3 9 1 9 9 0 8 -4 15 -9 15 -4 0 -8
-4 -8 -9z"/>
<path d="M2890 309 c0 -5 5 -7 10 -4 6 3 10 8 10 11 0 2 -4 4 -10 4 -5 0 -10
-5 -10 -11z"/>
<path d="M1429 293 c-13 -16 -12 -17 4 -4 16 13 21 21 13 21 -2 0 -10 -8 -17
-17z"/>
<path d="M1598 298 c0 -7 -2 -17 -2 -23 -1 -5 -6 -17 -10 -25 -6 -8 1 -6 13 5
13 11 25 19 28 17 3 -2 7 -1 10 2 3 3 -4 3 -16 1 -18 -3 -21 -1 -16 15 4 11 4
20 1 20 -3 0 -7 -6 -8 -12z"/>
<path d="M1468 293 c7 -3 16 -2 19 1 4 3 -2 6 -13 5 -11 0 -14 -3 -6 -6z"/>
<path d="M2974 286 c1 -8 5 -18 8 -22 4 -3 5 1 4 10 -1 8 -5 18 -8 22 -4 3 -5
-1 -4 -10z"/>
<path d="M1450 271 c0 -6 4 -13 10 -16 6 -3 7 1 4 9 -7 18 -14 21 -14 7z"/>
<path d="M1650 272 c0 -4 10 -9 22 -9 18 -2 20 0 8 7 -18 12 -30 13 -30 2z"/>
<path d="M1756 268 c3 -4 11 -5 19 -1 21 7 19 12 -4 10 -11 0 -18 -5 -15 -9z"/>
<path d="M1797 238 c19 -21 31 -25 14 -5 -6 8 -9 16 -6 19 3 2 -2 5 -10 5 -13
0 -13 -3 2 -19z"/>
<path d="M2910 251 c0 -6 4 -13 10 -16 6 -3 7 1 4 9 -7 18 -14 21 -14 7z"/>
<path d="M1533 237 c0 -8 6 -14 14 -14 9 0 10 4 2 14 -6 7 -12 13 -14 13 -1 0
-2 -6 -2 -13z"/>
<path d="M1710 246 c0 -2 8 -10 18 -17 15 -13 16 -12 3 4 -13 16 -21 21 -21
13z"/>
<path d="M1350 229 c0 -5 5 -7 10 -4 6 3 10 8 10 11 0 2 -4 4 -10 4 -5 0 -10
-5 -10 -11z"/>
<path d="M1436 231 c-3 -4 6 -7 19 -7 14 0 22 2 19 5 -8 8 -34 10 -38 2z"/>
<path d="M1680 236 c0 -2 8 -10 18 -17 15 -13 16 -12 3 4 -13 16 -21 21 -21
13z"/>
<path d="M1770 231 c0 -6 4 -13 10 -16 6 -3 7 1 4 9 -7 18 -14 21 -14 7z"/>
<path d="M2766 232 c-3 -5 1 -9 9 -9 8 0 12 4 9 9 -3 4 -7 8 -9 8 -2 0 -6 -4
-9 -8z"/>
<path d="M2693 199 c-2 -23 3 -25 10 -4 4 8 3 16 -1 19 -4 3 -9 -4 -9 -15z"/>
<path d="M1813 195 c0 -8 4 -12 9 -9 5 3 6 10 3 15 -9 13 -12 11 -12 -6z"/>
<path d="M1905 190 c10 -11 20 -20 23 -20 3 0 -3 9 -13 20 -10 11 -20 20 -23
20 -3 0 3 -9 13 -20z"/>
<path d="M1626 188 c3 -5 10 -6 15 -3 13 9 11 12 -6 12 -8 0 -12 -4 -9 -9z"/>
<path d="M1665 189 c-3 -4 2 -6 10 -5 21 3 28 13 10 13 -9 0 -18 -4 -20 -8z"/>
<path d="M1950 191 c0 -6 4 -13 10 -16 6 -3 7 1 4 9 -7 18 -14 21 -14 7z"/>
<path d="M1236 168 c3 -4 11 -5 19 -1 21 7 19 12 -4 10 -11 0 -18 -5 -15 -9z"/>
<path d="M2010 150 c0 -5 5 -10 11 -10 5 0 7 5 4 10 -3 6 -8 10 -11 10 -2 0
-4 -4 -4 -10z"/>
<path d="M1733 119 c-2 -23 3 -25 10 -4 4 8 3 16 -1 19 -4 3 -9 -4 -9 -15z"/>
<path d="M1676 117 c3 -10 9 -15 12 -12 3 3 0 11 -7 18 -10 9 -11 8 -5 -6z"/>
<path d="M1380 116 c0 -2 8 -10 18 -17 15 -13 16 -12 3 4 -13 16 -21 21 -21
13z"/>
</g>
</svg>
